<svg xmlns="http://www.w3.org/2000/svg" id="Layer_1" data-name="Layer 1" viewBox="0 0 906.42 145.57"><g id="QZB2nA.tif"><g><path d="M23.5,66.91c23.79-2.67,39.16-29.91,25.14-50.53l-5.65-7.33c9.13,7.55,20.6,13.73,25.11,25.31,5.04,12.94,1.54,28.11-9.14,37.03-12.6,10.52-27.86,9.21-43.36,8.89L0,67.91l.51-1c7.31-.6,15.84.8,22.99,0Z"></path><path d="M173.63,81.32l-1.94-.21-15.26-12.2-.24-1,1.41-.83L181.93.06c.67.05,1.17.45,1.7.8,3.24,2.11,9.93,7.52,12.76,10.21.61.58,1.74,1.31,1.76,2.21l-24.52,68.05Z"></path><polygon points="662.43 68.89 686.11 .12 701.8 13.19 679.85 80.56 678.71 81.34 662.43 68.89"></polygon><path d="M491.51.07c.35-.4,2.01.98,2.45,1.3,3.38,2.39,9.37,6.93,12.28,9.69.7.66,1.59,1.16,1.76,2.24l.03,57.37c-1.73,13.87-13.37,12.44-22.67,6.13-4.7-3.19-9.58-7.65-13.83-11.38,6.06,2.53,15.34,5.08,18.74-2.5.21-.47,1.25-3.55,1.25-3.74V.07Z"></path><path d="M3.26,3.56c13.04-.04,27.23-1.22,37.49,8.22,1.75,1.61,4.89,4.84,4.75,7.23-1.35-.56-4.76-1.99-6-1.99h-18.99c-.15,0-.38-.63-.75-.5v46.64l-.75.75H3.26V3.56Z"></path><path d="M237.14,80.37c-1.05-.11-2.26.17-3.27.02-1.75-.26-13.42-9.64-15.45-11.51-.61-.56-1.43-1-1.26-1.98h3.5V.07l16.49,12.72v67.58Z"></path><path d="M97.21.07l15.98,12.23.54,1.46-.1,65.8c-1.7,1.88-4.06.71-5.88-.48-4.97-3.26-9.35-7.78-14.04-11.43-.55-1.35,2.95-.54,3.49-.74V.07Z"></path><polygon points="619.45 67.91 620.59 67.29 640.05 7.92 641.43 6.06 651.45 36.22 636.87 80.56 635.72 81.35 619.45 67.91"></polygon><path d="M317.1,67.41V.07l14.23,10.99,1.75,2.24.45,66.29c-.2.85-1.48.87-2.19.83-2.99-.19-12.8-10.53-16.25-12.25-1.2-1.29,1.28-1.43,2.01-.76Z"></path><path d="M266.62,7.55l16.39,20.31.13,50.79-.84,1.65c-.95.13-1.96.2-2.9.04-3.2-.53-12.81-10.55-16.27-12.7-.55-1.35,2.95-.54,3.49-.74V7.55Z"></path><path d="M810.35,12.04v51.87h-16.49V.07c.82-.14,1.34.39,1.96.79,4.87,3.13,9.31,8.48,14.53,11.18Z"></path><path d="M553.98,17.03v14.46h-15.99c.16-.49-.5-1.08-.5-1.25V4.31l.75-.75h29.24c.19-.53-.6-4.06.74-3.49l15.74,12.72c.87,1.05.87,3.35-.24,4.23h-29.73Z"></path><path d="M769.87,17.03h-29.98v14.46h-15.74l-.75-.75V3.56h29.98c.2-.53-.61-4.05.74-3.49l15.28,12.69.47,4.27Z"></path><path d="M379.57,17.03v13.72l-.75.75h-15.74V3.56h29.49c.23-.77-.66-3.9.74-3.48l15.52,12.45c1.14,1.11,1.14,3.53-.02,4.51h-29.24Z"></path><path d="M582.96,47.45h-28.24l-.75.75v15.71h-15.74l-.75-.75v-27.43c0-.16.66-.76.5-1.25h28.49l.25-3.49,15.99,12.47.25,3.99Z"></path><path d="M768.37,47.45h-28.49v16.46h-16.49v-28.68l.75-.75h27.74c.19-.53-.6-4.06.74-3.49l15.28,12.18.46,4.28Z"></path><path d="M408.05,47.45h-28.49v15.71l-.75.75h-15.74v-29.43h28.49c.19-.53-.6-4.06.74-3.49l15.29,12.18.46,4.28Z"></path><path d="M856.33,62.91l.24-.98c6.96,4.51,14.24,8.33,22.64,5.13,10.63-4.06,14.3-19.1,6.11-27.33-.11-.34.48-.36.74-.24,1.55.71,10.48,8.11,12.26,9.72,5.69,5.14,8.8,8.74,7.98,16.96-.73,7.34-7.89,14.47-15.24,15.21-14.29,1.43-23.98-11.65-34.72-18.46Z"></path><path d="M886.8,8.55c.33-.45-.71-4.6.75-3.99l14.77,11.69c1.69,1.38.78,3.83.97,5.76-.43.48-4.48-2.53-5.31-2.93-12.43-5.94-24.76.47-20.93,14.91-6.02-2.65-16.2-8.1-17.19-15.26-1.05-7.56,3.04-14.03,10.83-15.04,5.82-.75,11.24,2.14,16.11,4.86Z"></path><path d="M157.17,58.93L134.19.08l14.73,10.98c1,.81,1.68,1.55,2.29,2.7,4.46,8.49,6.79,20.6,10.95,29.51l-4.98,15.65Z"></path><polygon points="620.44 57.93 619.33 57.29 599.96 .07 615.96 12.28 625.91 40.27 620.44 57.93"></polygon><path d="M840.83,80.37h-34.73l-15.5-12.47c-.49-.28.45-1,.51-1h32.48c.11,0,.57.75.74.5v-3.49s1.5.25,1.5.25l14.74,11.72.25,4.49Z"></path><polygon points="658.77 12.19 668.78 40.3 662.67 57.93 642.93 .82 643.18 .07 658.77 12.19"></polygon><path d="M392.81,66.91c.17.02.35.6.74.5.34-.47-.71-4.05.75-3.49,1.22.47,9.34,7.12,10.98,8.49,2.47,2.06,6.34,4.01,4.3,7.74l-34.5-.04-15.26-12.21c-.49-.28.45-1,.51-1h32.48Z"></path><path d="M770.37,80.37h-34.23c-4.53-3.96-10.49-7.59-14.75-11.71-.54-.52-1.16-.87-.99-1.75h32.73c.14,0,.36.61.74.5.39-.54-.77-3.93.74-3.48l15.76,12.71v3.75Z"></path><path d="M584.46,80.37h-34.23l-15.25-12.21c-.83-.39.02-1.26.26-1.26h33.23c.17-.65-.57-3.5.74-2.99,3.79,3.93,10.77,7.39,14.27,11.19,1.55,1.69.89,3.14.98,5.26Z"></path><path d="M313.6,59.92L265.62.32c.52-.29,1.65.56,2.16.84,5.26,2.9,10.15,6.61,15.37,9.6l30.46,37.43v11.72Z"></path><path d="M719.39,120.28l4.28.47,18.21,18.98-.5-19.45h4v24.94c-1.04-.09-2.24.18-3.24-.01-3.15-.6-15.31-16.58-19.24-18.94l.5,18.96h-4v-24.94Z"></path><path d="M515.75,120.28c9.56,1.01,15.04,10.25,10.44,18.9-1.32,2.49-6.14,6.04-8.95,6.04h-15.24v-24.19l.75-.75c4.17.32,8.9-.43,12.99,0ZM506,141.72c8.49.57,20.39-.03,17.26-11.99-.49-1.89-4.1-5.47-6.01-5.47h-11.24v17.46Z"></path><path d="M151.93,120.28c8.25,1.18,9.48,12.2,1.72,15.24l6.53,9.69-4.9-.1-6.35-8.87h-7.75v8.98h-4v-24.94c4.57.47,10.33-.63,14.74,0ZM141.19,132.25h10.24c.15,0,2.25-1.24,2.48-1.51,1.78-2.09.28-6.47-1.98-6.47h-10.74v7.98Z"></path><path d="M68.72,145.21v-24.94h13.24c.7,0,3.86.92,4.74,1.25,9.53,3.62,9.86,17.94.85,22.28-.54.26-3.79,1.41-4.09,1.41h-14.74ZM72.22,124.27v16.71c1.63,1.2,5.17.89,7.24.74,7.38-.53,12.76-4.34,9.91-12.37-.71-2-3.83-5.08-5.9-5.08h-11.24Z"></path><path d="M298.11,145.21v-24.94h13.24c.7,0,3.86.92,4.74,1.25,9.53,3.62,9.86,17.94.85,22.28-.54.26-3.79,1.41-4.09,1.41h-14.74ZM301.61,124.27v16.71c1.63,1.2,5.17.89,7.24.74,7.38-.53,12.76-4.34,9.91-12.37-.71-2-3.83-5.08-5.9-5.08h-11.24Z"></path><path d="M669.67,120.28c8.64,1.21,10.07,12.43,1.75,15.21l6.99,9.73c-1.38-.2-3.85.44-4.99-.25-1.28-.77-4.55-7.39-6.25-8.73h-8.25v8.98h-3.5v-24.94c4.43.44,9.96-.6,14.24,0ZM670.17,124.27c-3-.64-8,.47-11.24,0v7.98h10.74c.12,0,1.9-.98,2.09-1.15,2.13-1.96,1.1-6.25-1.59-6.83Z"></path><path d="M254.51,120.41c8.54-1.23,18.06,2.72,17.92,12.51-.18,12.67-18.23,16.7-25.81,8.08-6.68-7.6-1.93-19.17,7.89-20.58ZM256.01,123.9c-13.33,1.76-10.54,20.78,5.15,17.6,6.26-1.27,9.51-8.73,5.47-13.99-2.4-3.12-6.87-4.11-10.61-3.61Z"></path><polygon points="644.43 120.28 644.43 124.27 628.44 124.27 628.44 130.75 642.43 130.75 642.43 134.24 628.44 134.24 628.44 141.72 644.43 141.72 644.43 145.21 624.44 145.21 624.44 121.02 625.19 120.28 644.43 120.28"></polygon><path d="M174.67,124.27v6.48h13.99v3.49h-13.99v7.48h15.99v3.49h-19.99v-24.94h19.24c1.12.89,1.17,3.02,0,3.99h-15.24Z"></path><polygon points="416.55 120.28 416.44 122.91 400.06 141.22 416.3 141.22 416.97 142.05 417.05 145.21 393.56 145.21 394.03 141.94 410.05 124.27 394.56 124.27 394.56 120.28 416.55 120.28"></polygon><path d="M386.56,120.28l-.47,3.77-15.52,17.18h16.49v3.99h-22.99l.47-3.77,16.02-17.18h-15.24c-1.17-.97-1.12-3.1,0-3.99h21.24Z"></path><polygon points="708.4 120.28 708.4 124.27 692.91 124.27 692.91 130.75 706.4 130.75 706.4 134.24 692.91 134.24 692.91 141.72 708.4 141.72 708.4 145.21 688.91 145.21 688.91 120.28 708.4 120.28"></polygon><path d="M475.52,120.28v3.99h-15.99c.29,2.07-.75,4.9.75,6.48h13.24v3.49h-13.24c-1.21,1.6-1.22,5.82,0,7.48h15.24v3.49h-19.49v-24.94h19.49Z"></path><path d="M357.57,145.21c-5.12,1.02-4.75-2.05-6.44-5.67l-13.71-.23-2.91,5.82-3.91.08c1.57-3.24,9.87-23.71,11.49-24.69.87-.53,3.45-.47,4.26.25l11.24,24.44ZM349.08,135.74c-.34-1.03-4.89-11.42-5.49-10.97-.89,3.9-3.77,7.15-4.5,10.97h9.99Z"></path><path d="M128.19,145.21c-5.12,1.02-4.75-2.05-6.44-5.67l-13.71-.23-2.91,5.82-3.91.08c1.57-3.24,9.87-23.71,11.49-24.69.87-.53,3.45-.47,4.26.25l11.24,24.44ZM119.7,135.74c-.34-1.03-4.89-11.42-5.49-10.97-.89,3.9-3.77,7.15-4.5,10.97h9.99Z"></path><path d="M568.97,124.27v6.98h13.99v3.49h-13.99v10.47h-4v-24.19l.75-.75h18.49c1.12.89,1.17,3.02,0,3.99h-15.24Z"></path><polygon points="614.45 120.28 614.45 124.27 598.95 124.27 598.95 131.25 612.95 131.25 612.95 134.74 598.95 134.74 598.95 145.21 594.96 145.21 594.96 120.28 614.45 120.28"></polygon><polygon points="553.48 120.28 553.48 124.27 547.48 124.27 547.48 141.22 553.48 141.22 553.48 145.21 537.49 145.21 537.95 141.44 543.48 141.22 543.48 124.27 537.48 124.27 537.49 120.28 553.48 120.28"></polygon><path d="M823.34,135.49l-11.49-14.47c-.21-1.14.49-.68,1.24-.74,1.23-.1,3.04-.28,4,.51,1.48,1.22,7.33,10.96,8.01,10.97.63.13.88-.38,1.24-.76,1.62-1.7,6.41-9.81,7.5-10.47s3.21-.08,4.49-.25c.42.37-1,1.98-1.31,2.43-1.25,1.84-9.68,11.98-9.68,12.78v9.73h-4v-9.73Z"></path><path d="M236.14,120.28v3.99h-9v20.95h-4v-20.95h-8.25c-1.17-.97-1.12-3.1,0-3.99h21.24Z"></path><path d="M766.87,124.27v20.95h-3.5v-20.95h-9v-3.99h21.24c1.12.89,1.17,3.02,0,3.99h-8.75Z"></path><polygon points="430.04 120.28 430.04 141.72 445.53 141.72 445.53 145.21 426.04 145.21 426.04 120.28 430.04 120.28"></polygon><polygon points="788.86 120.28 788.86 141.72 804.35 141.72 804.35 145.21 784.86 145.21 784.86 121.02 785.69 120.35 788.86 120.28"></polygon><path d="M886.3,48.95c-8.86-4.33-15.69-11.98-22.48-18.95l17.73,10.48c2.5,2.14,4.67,5.08,4.75,8.47Z"></path><path d="M869.81,63.92c.08.98-1.51.39-2.02.27-3.43-.79-7.77-3.28-10.48-5.5l-2.49-2.75,14.98,7.99Z"></path><path d="M481.02,63.92c-.03.87.34,1.04-.63.88-3.68-.62-7.62-1.59-9.87-4.87l10.5,3.99Z"></path></g></g></svg>