<?xml version="1.0" encoding="UTF-8"?>
<svg id="Layer_1" data-name="Layer 1" xmlns="http://www.w3.org/2000/svg" ViewBox="0 0 1308.74 354.56">
  <defs>
    <style>
      .cls-1 {
        font-family: Mont-ExtraLightDEMO, Mont;
        font-size: 28.82px;
        font-weight: 200;
        isolation: isolate;
      }

      .cls-1, .cls-2 {
        fill: #fff;
      }

      .cls-2, .cls-3, .cls-4 {
        fill-rule: evenodd;
      }

      .cls-3 {
        fill: #6754e9;
      }

      .cls-5 {
        letter-spacing: 0em;
      }

      .cls-6 {
        letter-spacing: -.01em;
      }

      .cls-7 {
        letter-spacing: -.03em;
      }

      .cls-8 {
        letter-spacing: -.03em;
      }

      .cls-9 {
        letter-spacing: -.03em;
      }

      .cls-10 {
        letter-spacing: 0em;
      }

      .cls-11 {
        letter-spacing: -.01em;
      }

      .cls-12 {
        letter-spacing: 0em;
      }

      .cls-13 {
        letter-spacing: 0em;
      }

      .cls-14 {
        letter-spacing: 0em;
      }

      .cls-4 {
        fill: #645aa6;
      }
    </style>
  </defs>
  <g>
    <path class="cls-2" d="M553.6,91.95l-53.84,78.51,53.84,78.51h-46.44l-38.59-56.31v56.31h-40.83V91.95h40.83v56.3l38.59-56.3h46.44ZM357.76,166.2c4.64,0,8.6-1.65,11.89-4.93,3.29-3.29,4.93-7.26,4.93-11.89s-1.64-8.59-4.93-11.89c-3.29-3.29-7.25-4.93-11.89-4.93h-14.13v33.64h14.13ZM395.9,192.44l20.86,56.53h-40.83l-17.05-42.18h-15.25v42.18h-41.72V91.95h55.96c7.93,0,15.41,1.49,22.36,4.49,7,2.99,13.09,7.1,18.32,12.34,5.24,5.23,9.39,11.33,12.38,18.28,3,6.95,4.49,14.39,4.49,22.32,0,8.67-1.76,16.71-5.27,24.12-3.52,7.39-8.27,13.71-14.25,18.94ZM71.08,132.55v75.82h24.45c2.24.15,4.19-.3,5.83-1.35,1.65-1.04,2.99-2.39,4.04-4.04,1.04-1.68,1.83-3.55,2.35-5.65.52-2.09.78-4.11.78-6.05v-41.65c0-1.94-.3-3.92-.89-5.94-.6-2.02-1.43-3.85-2.47-5.53-1.04-1.65-2.35-3-3.93-4.04-1.57-1.04-3.47-1.57-5.72-1.57h-24.44ZM95.64,91.95c7.52,0,14.51,1.42,21.01,4.26,6.55,2.84,12.19,6.66,16.98,11.44,4.78,4.78,8.64,10.43,11.47,16.93,2.85,6.51,4.27,13.5,4.27,20.98v49.8c0,7.32-1.42,14.28-4.27,20.86-2.84,6.58-6.69,12.26-11.47,17.05-4.78,4.78-10.43,8.59-16.98,11.43-6.5,2.85-13.49,4.27-21.01,4.27H29.13V91.95h66.51Z"/>
    <path class="cls-3" d="M714.84,285.15h45.75v-135.73h-45.75v135.73ZM763.11,290.15h-53.25v-145.73h55.75v145.73h-2.5Z"/>
    <path class="cls-3" d="M1274.63,140.41v-45.49h-151.75v45.49h52.99v144.75h45.77v-144.75h52.99ZM1279.61,92.43v52.98h-52.99v144.75h-55.75v-144.75h-52.99v-55.48h161.73v2.5Z"/>
    <path class="cls-3" d="M1103.93,94.93h-45.77v82.28h-64.39v-82.28h-45.77v190.24h45.77v-62.48h64.39v62.48h45.77V94.93ZM1055.67,89.93h53.26v200.22h-55.75v-62.48h-54.41v62.48h-55.75V89.93h55.75v82.28h54.41v-82.28h2.49Z"/>
    <path class="cls-3" d="M860.99,181.49v40.11h21.71l-1.57,3.51c-1.12,2.51-2.56,4.8-4.31,6.86-1.74,2.05-3.82,3.9-6.18,5.52-4.8,3.28-10.24,4.92-16.27,4.92-4,0-7.71-.67-11.14-2.01-3.43-1.36-6.55-3.37-9.36-6.05h-.01c-2.82-2.74-4.96-5.74-6.39-9.04-1.43-3.32-2.15-6.91-2.15-10.79v-48.91c0-3.78.73-7.3,2.18-10.57,1.43-3.25,3.57-6.23,6.42-8.95,2.82-2.69,5.96-4.7,9.41-6.04,3.46-1.36,7.2-2.03,11.23-2.03,1.98,0,3.9.19,5.81.55,1.88.36,3.68.91,5.42,1.63,1.72.71,3.34,1.57,4.87,2.56,1.5.98,2.91,2.09,4.19,3.32,1.32,1.24,2.51,2.6,3.56,4.05,1.07,1.47,1.96,3.01,2.72,4.63h-.01c.78,1.68,1.37,3.42,1.75,5.22.21,1.02.37,2.05.47,3.1h45.69c-.14-3.95-.61-7.82-1.43-11.58-.98-4.55-2.46-8.95-4.41-13.19-1.99-4.29-4.33-8.31-6.99-12.04-2.66-3.71-5.68-7.15-9.05-10.32-3.37-3.16-7.02-5.99-11-8.52-3.98-2.54-8.24-4.72-12.77-6.6-4.56-1.85-9.26-3.25-14.1-4.18-4.81-.92-9.8-1.39-14.94-1.39s-10.16.47-14.98,1.4c-4.85.93-9.54,2.34-14.06,4.2-4.56,1.88-8.83,4.09-12.79,6.63-3.95,2.54-7.62,5.4-10.99,8.58h0c-3.37,3.2-6.39,6.65-9.06,10.38-2.67,3.73-5,7.76-6.99,12.06-1.96,4.26-3.44,8.68-4.43,13.23-.98,4.54-1.47,9.24-1.47,14.09v48.79c0,4.85.48,9.54,1.47,14.07.98,4.55,2.46,8.98,4.43,13.23,1.98,4.3,4.31,8.33,6.99,12.06s5.68,7.2,9.06,10.37c3.38,3.21,7.05,6.07,10.99,8.59,3.97,2.54,8.23,4.74,12.79,6.61,4.53,1.86,9.21,3.27,14.06,4.2,4.82.93,9.82,1.4,14.98,1.4s10.15-.47,14.98-1.4c4.84-.93,9.52-2.34,14.06-4.2,4.56-1.88,8.83-4.09,12.78-6.61,3.95-2.52,7.62-5.38,11-8.59,3.37-3.18,6.39-6.64,9.05-10.37,2.67-3.73,5-7.76,6.99-12.06,1.96-4.26,3.43-8.68,4.43-13.23.98-4.54,1.47-9.24,1.47-14.07v-33.12h-68.08ZM855.99,224.09v-47.59h78.07v38.11c0,5.17-.53,10.22-1.59,15.12-1.06,4.9-2.66,9.65-4.77,14.26-2.11,4.58-4.59,8.86-7.46,12.86-2.86,4-6.09,7.71-9.7,11.12-3.58,3.39-7.51,6.44-11.74,9.15-4.21,2.7-8.74,5.05-13.56,7.04-4.86,2-9.87,3.49-15.02,4.5-5.17,1.01-10.47,1.5-15.91,1.5s-10.75-.5-15.91-1.5c-5.15-.99-10.16-2.5-15.02-4.5-4.82-1.99-9.35-4.33-13.58-7.04-4.24-2.71-8.14-5.76-11.74-9.15-3.61-3.41-6.84-7.11-9.7-11.12-2.86-3.99-5.35-8.29-7.45-12.86-2.13-4.61-3.72-9.37-4.77-14.26-1.06-4.91-1.59-9.95-1.59-15.12v-48.79c0-5.18.52-10.23,1.59-15.13,1.07-4.9,2.65-9.65,4.77-14.26,2.1-4.58,4.59-8.86,7.45-12.86,2.86-4,6.09-7.71,9.7-11.12,3.61-3.41,7.52-6.47,11.74-9.15,4.21-2.69,8.74-5.05,13.58-7.02,4.86-2,9.87-3.51,15.02-4.5,5.16-.99,10.47-1.5,15.91-1.5s10.73.5,15.88,1.49c5.17.99,10.2,2.47,15.03,4.45h.01c4.85,2.01,9.37,4.34,13.56,7,4.21,2.67,8.12,5.71,11.74,9.1,3.58,3.37,6.81,7.06,9.67,11.04,2.87,4,5.36,8.29,7.48,12.86,2.11,4.59,3.72,9.34,4.76,14.22,1.07,4.91,1.6,9.95,1.6,15.13v2.5h-55.61v-2.5c0-1.59-.16-3.12-.46-4.56-.31-1.45-.78-2.83-1.38-4.14h-.01c-.65-1.38-1.38-2.65-2.24-3.82-.85-1.18-1.83-2.29-2.93-3.33l-.02-.02c-1.06-1.02-2.23-1.95-3.47-2.76-1.26-.82-2.62-1.53-4.08-2.14-1.42-.6-2.91-1.04-4.45-1.33-1.55-.3-3.18-.45-4.86-.45-3.42,0-6.56.56-9.42,1.67-2.85,1.12-5.45,2.79-7.8,5.02-2.36,2.25-4.13,4.7-5.28,7.35-1.16,2.62-1.74,5.48-1.74,8.57v48.91c0,3.2.58,6.14,1.74,8.83,1.16,2.69,2.91,5.16,5.23,7.4,2.35,2.24,4.92,3.92,7.76,5.02,2.82,1.12,5.93,1.67,9.31,1.67,5.04,0,9.54-1.34,13.48-4.04,2-1.37,3.73-2.91,5.18-4.63.58-.7,1.13-1.42,1.63-2.16h-18.64v-2.52h.01Z"/>
    <path class="cls-3" d="M695.9,239.67h-75.58V94.93h-45.77v190.24h121.36v-45.49h-.01ZM625.31,234.68h75.58v55.46h-131.33V89.93h55.75v144.75Z"/>
    <path class="cls-2" d="M248.52,248.97l-6.5-24.67h-43.97l-6.73,24.67h-42.18l42.62-157.02h56.53l42.4,157.02h-42.17ZM209.27,182.57h21.54l-10.77-39.93-10.77,39.93Z"/>
    <polygon class="cls-3" points="712.39 115.8 712.39 92.39 763.19 92.35 763.19 141.29 712.39 115.8"/>
    <path class="cls-3" d="M805.1,109.66c-17.23,13.1-27.95,34.49-28.01,53.67l-.04,27.23,50.93,58.42,33.46,38.37c29.78-2.7,44.55-18.64,47.39-21.2,18.14-16.86,22.48-38.62,22.84-48.95v-39.57h-73.08l-.1,46.46h20.35c-2.34,4.17-5.87,11.45-17.65,14.99-4.14.7-13.97,3.01-23.9-5.04-7.82-6.93-8.06-11.05-9.32-16.29l-.11-44.04c.02-4.39.02-5.82.04-10.2,4.54-31.75,51.68-29.5,53.04,2.03h50.63v-2.05c-43.54-18.49-82.9-35.38-126.46-53.85Z"/>
    <path class="cls-3" d="M858.59,189.05v-11.41h73.08v39.57c-.29,2.61-.29,5.42-.67,7.93l-72.41-36.09Z"/>
    <polygon class="cls-3" points="945.36 169.33 945.51 287.65 996.26 287.55 996.21 225.13 1055.62 225.13 1055.63 287.65 1106.84 287.65 1106.08 237.47 945.36 169.33"/>
    <polygon class="cls-4" points="1173.57 266.08 1173.57 287.65 1224 287.65 1173.57 266.08"/>
  </g>
  <text class="cls-1" transform="translate(29.72 290.16)"><tspan class="cls-14" x="0" y="0">U</tspan><tspan x="20.7" y="0">nloc</tspan><tspan class="cls-6" x="82.73" y="0">k</tspan><tspan class="cls-8" x="97.02" y="0"> </tspan><tspan x="104.37" y="0">the </tspan><tspan class="cls-10" x="160.26" y="0">P</tspan><tspan class="cls-14" x="177.36" y="0">ow</tspan><tspan x="220.79" y="0">e</tspan><tspan class="cls-9" x="239.07" y="0">r</tspan><tspan x="249.21" y="0"> </tspan><tspan class="cls-11" x="257.31" y="0">o</tspan><tspan class="cls-7" x="276.11" y="0">f</tspan><tspan x="285.85" y="0"> </tspan><tspan class="cls-13" x="293.95" y="0">D</tspan><tspan class="cls-5" x="314.79" y="0">igi</tspan><tspan class="cls-12" x="347.48" y="0">t</tspan><tspan x="358.26" y="0">al </tspan><tspan class="cls-14" x="393.19" y="0">B</tspan><tspan x="411.7" y="0">rilliance</tspan></text>
  <text class="cls-1" transform="translate(29.72 82.16)"><tspan x="0" y="0">THE</tspan></text>
</svg>